<!-- whatsapp.svg -->
<svg width="40" height="40" viewBox="0 0 40 40" fill="none" xmlns="http://www.w3.org/2000/svg">
  <circle cx="20" cy="20" r="19" fill="#25D366" stroke="#fff" stroke-width="2"></circle>
  <path d="M28.6 23.4c-.4-.2-2.4-1.2-2.7-1.3-.4-.1-.7-.2-1 .2-.3.3-1.1 1.3-1.3 1.6-.2.2-.4.3-.8.1-.4-.2-1.5-.6-2.9-1.7-1.1-.9-1.8-2.1-2-2.4-.2-.4 0-.6.2-.8.2-.2.4-.5.6-.7.2-.2.2-.4.3-.7.1-.2 0-.5 0-.7 0-.2-.7-1.7-1-2.3-.2-.5-.5-.4-.7-.4h-.7c-.2 0-.5.1-.7.3-.2.2-1 1-1 2.5s1 2.8 1.2 3c.2.2 2 3.2 5.1 4.4.7.3 1.2.5 1.7.7.7.2 1.4.1 1.9 0 .6-.1 1.7-.7 2-1.4.2-.4.2-.9.2-1 0-.1-.2-.1-.6-.2z" fill="#fff"></path>
</svg>
